<svg xmlns="http://www.w3.org/2000/svg" width="22" height="22" viewBox="0 0 22 22">
  <path id="Icon_awesome-pinterest" data-name="Icon awesome-pinterest" d="M22,11.562A11,11,0,0,1,7.744,22.07,12.365,12.365,0,0,0,9.11,19.187c.133-.515.683-2.617.683-2.617a2.946,2.946,0,0,0,2.519,1.264c3.318,0,5.708-3.052,5.708-6.844A6.456,6.456,0,0,0,11.24,4.639c-4.746,0-7.27,3.185-7.27,6.658,0,1.615.86,3.624,2.231,4.262.208.1.319.053.368-.146.035-.151.222-.9.306-1.246a.329.329,0,0,0-.075-.315,4.332,4.332,0,0,1-.812-2.51,4.76,4.76,0,0,1,4.968-4.773,4.343,4.343,0,0,1,4.6,4.475c0,2.976-1.5,5.039-3.46,5.039A1.6,1.6,0,0,1,10.463,14.1a22.1,22.1,0,0,0,.909-3.664A1.381,1.381,0,0,0,9.98,8.883c-1.1,0-1.992,1.14-1.992,2.67a3.964,3.964,0,0,0,.328,1.632S7.23,17.79,7.03,18.65a10.648,10.648,0,0,0-.04,3.158A11,11,0,1,1,22,11.562Z" transform="translate(0 -0.563)" fill="#fff"/>
</svg>
