<svg xmlns="http://www.w3.org/2000/svg" width="19" height="22" viewBox="0 0 19 22">
  <path id="Icon_simple-tiktok" data-name="Icon simple-tiktok" d="M12.347.018C13.541,0,14.726.009,15.91,0a5.727,5.727,0,0,0,1.595,3.822,6.407,6.407,0,0,0,3.864,1.641V9.157a9.706,9.706,0,0,1-3.827-.889,11.242,11.242,0,0,1-1.476-.852c-.009,2.677.009,5.353-.018,8.021a7.029,7.029,0,0,1-1.23,3.612,6.779,6.779,0,0,1-5.385,2.942,6.614,6.614,0,0,1-3.718-.944,6.916,6.916,0,0,1-3.326-5.234c-.018-.458-.027-.917-.009-1.366A6.893,6.893,0,0,1,4.73,9.9a6.755,6.755,0,0,1,5.6-1.577c.018,1.357-.036,2.713-.036,4.07a3.123,3.123,0,0,0-3.991,1.943,3.657,3.657,0,0,0-.128,1.476,3.106,3.106,0,0,0,3.189,2.631,3.058,3.058,0,0,0,2.524-1.476A2.122,2.122,0,0,0,12.265,16c.091-1.641.055-3.272.064-4.913.009-3.694-.009-7.379.018-11.064Z" transform="translate(-2.369)" fill="#fff"/>
</svg>
